<?xml version="1.0" encoding="utf-8"?>
<!-- Svg Vector Icons : http://www.onlinewebfonts.com/icon -->
<!DOCTYPE svg PUBLIC "-//W3C//DTD SVG 1.1//EN" "http://www.w3.org/Graphics/SVG/1.1/DTD/svg11.dtd">
<svg fill="#fff" version="1.1" xmlns="http://www.w3.org/2000/svg" xmlns:xlink="http://www.w3.org/1999/xlink" x="0px" y="0px" viewBox="0 0 1000 1000" enable-background="new 0 0 1000 1000" xml:space="preserve">
<metadata> Svg Vector Icons : http://www.onlinewebfonts.com/icon </metadata>
<g><g transform="translate(0.000000,511.000000) scale(0.100000,-0.100000)"><path d="M507.8,4960.9c-53.7-51.6-66.7-122.6-40.8-193.5c8.6-19.4,204.3-161.3,436.5-316.1c232.2-154.8,427.9-286,436.5-294.6c8.6-8.6-103.2-105.4-251.6-215C806.7,3733.2,772.3,3688,811,3576.2c15-45.2,96.8-94.6,421.4-260.2c221.5-111.8,408.5-210.7,415-219.3c8.6-6.5-96.8-98.9-234.4-202.1c-376.3-281.7-374.1-311.8,58.1-599.9l305.3-204.3h-694.5H387.4l-51.6-53.8c-94.6-92.5-75.3-172,81.7-322.5c75.3-71,888-845,1806.1-1718l1670.7-1589v-1427.7V-4446H3432c-464.4,0-464.4,0-516-53.8c-71-68.8-71-167.7,0-236.5l51.6-53.8h1098.7H5165l51.6,53.8c70.9,68.8,70.9,167.7,0,236.5c-51.6,53.8-51.6,53.8-516,53.8h-462.3v1425.5V-1597l1432,1363.2l1432,1363.2l86-101c107.5-124.7,266.6-208.6,425.8-221.5c215-19.4,372,60.2,496.7,251.6c38.7,58.1,75.3,107.5,81.7,107.5c6.4,0,43-47.3,81.7-105.4c167.7-258,451.5-329,731.1-189.2c215,109.7,320.4,303.2,303.2,550.4l-8.6,129l90.3,34.4c118.3,45.2,253.7,180.6,301,301c53.8,141.9,34.4,397.8-43,556.9c-94.6,193.5-236.5,290.3-511.7,346.2l-58,10.7l51.6,114c83.9,180.6,107.5,318.2,77.4,453.7c-49.5,223.6-264.5,451.5-481.6,509.6c-122.5,32.3-283.8-6.5-423.6-98.9l-107.5-73.1l-107.5,73.1c-253.7,172-539.7,129-748.3-109.7c-96.8-107.5-176.3-292.4-176.3-404.2c0-83.9,53.8-273.1,109.6-382.7l40.9-81.7l-58.1-10.7c-208.6-43-301-83.9-395.6-180.6C6749.7,2499,6668,2314.1,6668,2176.5v-86H4535H2402.1l-395.6,262.3c-215,144.1-384.9,268.8-376.3,275.2c8.6,8.6,131.2,101.1,270.9,204.3c262.3,195.7,296.7,243,260.2,352.6c-15,45.2-96.8,94.6-421.4,260.2c-221.5,111.8-408.5,210.7-415,219.3c-8.6,6.4,96.8,98.9,234.4,202.1c404.2,301,408.5,290.3-316.1,771.9C639,5040.5,602.4,5057.7,507.8,4960.9z M7919.4,3505.3c53.8-25.8,103.2-131.1,103.2-212.9c0-94.6,73.1-169.9,163.4-169.9c105.4,0,161.3,60.2,182.8,195.7c23.7,157,88.1,212.9,243,212.9c137.6,0,210.7-55.9,251.5-191.4c43-144.1-34.4-337.6-215-548.3c-47.3-53.8-90.3-118.3-98.9-141.9c-17.2-55.9,23.6-163.4,70.9-184.9c21.5-8.6,152.7-17.2,294.6-17.2c230-2.2,266.6-8.6,335.4-51.6c139.8-86,189.2-270.9,105.4-406.4c-81.7-135.5-169.9-159.1-337.6-90.3c-81.7,34.4-156.9,6.4-212.8-75.3c-49.5-77.4-25.8-144.1,88.1-258c107.5-105.4,120.4-161.3,62.4-283.8c-53.8-111.8-133.3-165.6-221.5-150.5c-107.5,17.2-165.5,83.9-286,331.1c-113.9,230.1-161.3,283.8-253.7,283.8c-83.9-2.2-118.3-40.8-247.3-279.5c-139.7-262.3-187.1-318.2-283.8-335.4c-111.8-21.5-219.3,68.8-253.7,212.9c-15.1,53.8,4.3,77.4,212.9,275.2c210.7,202.1,227.9,223.6,227.9,301c0,62.4-12.9,90.3-55.9,124.7c-53.8,40.8-86,45.2-430,45.2h-374.1v60.2c0,86,70.9,202.1,152.7,251.6c62.4,36.6,111.8,43,348.3,43c264.5,0,279.5,2.2,318.2,51.6c68.8,83.9,51.6,152.7-77.4,316.1c-217.2,268.8-262.4,425.7-178.5,589.1c36.6,73.1,68.8,103.2,124.7,122.6C7753.8,3548.3,7850.6,3541.8,7919.4,3505.3z M6797,1316.4l-440.8-430l-2289.9,2.2H1776.4l-440.8,427.9l-440.8,427.9h3171.5h3171.5L6797,1316.4z M5721.9,286.5l-268.8-258H4070.6l-1384.7-2.1l-260.2,251.6c-144.1,137.6-266.6,253.7-270.9,258c-4.3,4.3,855.8,6.4,1913.6,6.4h1922.2L5721.9,286.5z M4980.1-418.8c-58.1-53.8-288.1-270.9-509.6-483.8l-399.9-384.9l-503.1,477.3c-275.2,262.3-505.3,481.7-509.6,485.9c-4.3,2.1,449.4,6.5,1010.6,6.5l1019.2-2.2L4980.1-418.8z"/></g></g>
</svg>