<svg id="Layer_1" data-name="Layer 1" xmlns="http://www.w3.org/2000/svg" viewBox="0 0 512 512"><defs><style>.cls-1{fill:#231f20;}</style></defs><title>Part3Artboard 1</title><path class="cls-1" d="M512,232.92V512H108.68c-2.1-9.72-1.07-20.79-.36-28.36,1.18-12.6,4.1-43.91,26.19-66.77,39.14-40.5,91.37-5.75,124.7-42.76,22.78-25.3,6.39-51.67,36-78.13,19.48-17.41,43.87-21.58,52.09-23,34.24-5.85,40.42,8.89,68.17,3.83,37.06-6.77,41.3-35.78,75.83-42.89A68.69,68.69,0,0,1,512,232.92Z"/><path class="cls-1" d="M512,232.92V512H108.68c-2.1-9.72-1.07-20.79-.36-28.36,1.18-12.6,4.1-43.91,26.19-66.77,39.14-40.5,91.37-5.75,124.7-42.76,22.78-25.3,6.39-51.67,36-78.13,19.48-17.41,43.87-21.58,52.09-23,34.24-5.85,40.42,8.89,68.17,3.83,37.06-6.77,41.3-35.78,75.83-42.89A68.69,68.69,0,0,1,512,232.92Z"/></svg>