<?xml version="1.0" encoding="utf-8"?>
<!-- Svg Vector Icons : http://www.onlinewebfonts.com/icon -->
<!DOCTYPE svg PUBLIC "-//W3C//DTD SVG 1.1//EN" "http://www.w3.org/Graphics/SVG/1.1/DTD/svg11.dtd">
<svg fill="#fff" version="1.1" xmlns="http://www.w3.org/2000/svg" xmlns:xlink="http://www.w3.org/1999/xlink" x="0px" y="0px" viewBox="0 0 1000 1000" enable-background="new 0 0 1000 1000" xml:space="preserve">
<metadata> Svg Vector Icons : http://www.onlinewebfonts.com/icon </metadata>
<g><path d="M343.1,321.3"/><path d="M987.6,213.8c-14.1-30.2-14-30.1-37.6-7.4c-39.1,37.7-78.4,75.3-117.7,112.9c-10.6,10.1-19,11.1-27,3.5c-8-7.7-7.4-16,2-27.1c39.6-46.5,79-93.2,118.9-139.4c6.5-7.5,5.9-12.1-1-18.5c-20.3-18.7-13.8-20.7-35.8-1.9c-43.1,36.9-86.3,73.6-129.5,110.4c-12,10.2-19.1,11.2-27.2,3.9c-8-7.2-8.7-15.2-1-23.9c9.4-10.7,19.4-20.9,29.3-31.2c31.6-32.9,63.3-65.7,95-98.6c12.5-12.9,12.4-13.6-3.9-21.9c-12-6.1-22-7.2-34.8-2c-11.4,4.6-21.6,12-31.1,19.7c-44.1,35.9-85.1,75.4-121.9,118.4c-37.2,43.4-50.3,94-24.6,149.3c2.7,5.9,0.5,9.7-3.5,13.6C625,384,614,394.9,602.8,405.5c-151.3,143.6-302.7,287.1-454,430.8c-13.5,12.8-15.2,19.9-7.2,37c14,30,36.1,50.6,69.5,57.5c0.8,0,1.6,0,2.4,0c6.4-2.4,11.9-5.9,16.7-10.9c37.8-40.1,75.8-80.1,113.7-120.1c52.7-55.6,105.3-111.2,158-166.7c64.5-67.9,129-135.8,193.4-203.7c4.1-4.3,7.7-7,14.3-4.5c50.2,19.1,95.6,7.2,136.1-24.5c35.3-27.7,64.9-61.7,95.4-94.6c18.4-19.8,35.6-40.6,46.5-65.7C990.3,231.6,991.3,223.7,987.6,213.8z"/><path d="M827.9,836.6c-45.5-42.5-90.5-85.6-135.7-128.5c-33.7-32-67.5-63.8-100.9-96c-7.9-7.6-13.2-8.7-21.1,0.3c-15.2,17.3-31.5,33.6-47.4,50.2c-10.7,11.2-10.6,11.1,0.1,22.5c11,11.6,22.1,23.3,33.1,34.9c31.5,33.3,63.1,66.6,94.6,99.9c29,30.5,57,62.3,86.6,92.2c7,7,14.6,14,24,17c0.1,0,0.2,0.1,0.3,0.1c15.3,4.7,31.1-6.7,42.4-16.1c13.5-11.2,24.3-26,31-42.1C840.6,858.1,839,846.9,827.9,836.6z"/><path d="M268.9,431c6.9-3.2,10.9-1,15.5,3.8c33.4,35,67,69.8,100.3,104.8c0.6,0.7,1.3,1.4,1.9,2c0.3,0.4,0.6,0.7,1,1c0.2,0.2,0.5,0.5,0.7,0.7l0,0c0,0,0,0,0,0c0.5,0.5,1,0.9,1.4,1.3c0,0,0.1,0.1,0.1,0.1c0.3,0.3,0.6,0.5,0.9,0.7c0.1,0.1,0.1,0.1,0.2,0.2c0.3,0.2,0.6,0.4,0.9,0.6c0.1,0,0.1,0.1,0.2,0.1c0.3,0.2,0.6,0.4,0.9,0.5c0.1,0,0.1,0.1,0.2,0.1c0.3,0.2,0.6,0.3,0.9,0.4c0,0,0,0,0,0c0.9,0.4,1.9,0.6,2.8,0.6c0.1,0,0.2,0,0.3,0c0.2,0,0.5,0,0.7-0.1c0.1,0,0.3,0,0.4-0.1c0.2,0,0.4-0.1,0.6-0.2c0.2,0,0.3-0.1,0.5-0.2c0.2-0.1,0.4-0.2,0.6-0.2c0.2-0.1,0.4-0.2,0.6-0.3c0.2-0.1,0.4-0.2,0.6-0.3c0.2-0.1,0.4-0.2,0.6-0.4c0.2-0.1,0.4-0.2,0.6-0.4c0.2-0.2,0.5-0.3,0.7-0.5c0.2-0.1,0.4-0.3,0.6-0.4c0.3-0.2,0.6-0.5,0.9-0.7c0.2-0.1,0.3-0.3,0.5-0.4c0.5-0.4,0.9-0.9,1.4-1.4c14.3-14.8,29.8-28.6,44.7-42.8c10.9-10.4,10.7-10.2-0.5-20.7c-36.4-34.3-72.6-68.8-109-103.1c-4.8-4.5-7.1-8.6-3.9-15.5c22-48.1,15.3-94.6-13.8-136.6c-48-69.3-116.6-107.5-199.2-119.5c-35.2-5.1-68,3.6-91.7,33.6c-0.2,0.3-0.4,0.6-0.7,0.9c-20.2,22.5-25.7,50.7-21.1,80.7C24,302.1,62.7,370.4,132.2,418C174.4,446.9,220.9,453.3,268.9,431z"/></g>
</svg>